<svg style="width: 100%; height: 100%;"
     version="1.1" viewBox="-199.8110334127474 0 399.6220668254948 100"
     xmlns="http://www.w3.org/2000/svg">
    <g transform="translate(-194.56926959578914 80.49599586670112) scale(1.4351732254083067)">
        <g id="line1">
            <path d="M17.640-33.840L17.352-33.264L17.424-33.120C17.520-32.832 17.520-32.568 17.424-32.328L17.136-31.608C16.464-30.216 15.876-28.896 15.372-27.648C14.868-26.400 14.376-24.984 13.896-23.400C13.848-23.352 13.824-23.280 13.824-23.184L13.680-23.256C13.536-22.920 13.428-22.692 13.356-22.572C13.284-22.452 13.236-22.356 13.212-22.284C13.188-22.212 13.128-22.116 13.032-21.996C12.936-21.876 12.792-21.672 12.600-21.384C12.504-21.240 12.456-21.096 12.456-20.952C12.456-20.808 12.432-20.664 12.384-20.520C12.384-20.472 12.336-20.352 12.240-20.160C12.192-20.112 12.120-20.088 12.024-20.088C10.776-19.944 9.768-19.788 9.000-19.620C8.232-19.452 7.224-19.344 5.976-19.296C5.400-19.200 4.836-19.152 4.284-19.152C3.732-19.152 3.120-19.128 2.448-19.080C2.064-19.080 1.728-19.068 1.440-19.044C1.152-19.020 0.864-19.008 0.576-19.008C0.192-19.056-0.168-19.020-0.504-18.900C-0.840-18.780-1.176-18.672-1.512-18.576C-1.608-18.528-1.836-18.408-2.196-18.216C-2.556-18.024-2.736-17.880-2.736-17.784C-3.072-17.304-3.324-16.896-3.492-16.560C-3.660-16.224-3.696-15.768-3.600-15.192C-3.552-14.280-3.204-13.608-2.556-13.176C-1.908-12.744-1.320-12.480-0.792-12.384C-0.696-12.336-0.588-12.288-0.468-12.240C-0.348-12.192-0.216-12.168-0.072-12.168L2.304-12.312C2.832-12.552 3.360-12.648 3.888-12.600L4.248-12.780C4.392-12.852 4.512-12.888 4.608-12.888C4.848-12.888 5.028-12.900 5.148-12.924C5.268-12.948 5.364-12.960 5.436-12.960L5.760-12.960C5.904-12.960 6.120-12.984 6.408-13.032C6.648-13.080 6.876-13.104 7.092-13.104L7.776-13.104C7.872-13.104 8.064-13.176 8.352-13.320C8.640-13.464 8.856-13.536 9.000-13.536C8.472-12.336 8.004-11.160 7.596-10.008C7.188-8.856 6.816-7.872 6.480-7.056L5.832-5.544C5.544-4.968 5.196-4.152 4.788-3.096C4.380-2.040 3.960-0.984 3.528 0.072C3.096 1.128 2.712 2.088 2.376 2.952C2.040 3.816 1.800 4.368 1.656 4.608C1.464 4.992 1.308 5.328 1.188 5.616C1.068 5.904 0.972 6.180 0.900 6.444C0.828 6.708 0.756 6.984 0.684 7.272C0.612 7.560 0.528 7.920 0.432 8.352C0.192 8.928 0.132 9.528 0.252 10.152C0.372 10.776 0.576 11.352 0.864 11.880C1.104 12.504 1.356 12.912 1.620 13.104C1.884 13.296 2.352 13.440 3.024 13.536C3.744 13.680 4.248 13.536 4.536 13.104L4.608 13.032L5.328 13.248C5.520 13.008 5.652 12.792 5.724 12.600C5.796 12.408 6.024 12.312 6.408 12.312C6.552 12.312 6.624 12.192 6.624 11.952C6.912 11.136 7.272 10.368 7.704 9.648C8.136 8.928 8.520 8.136 8.856 7.272C9.240 6.456 9.552 5.760 9.792 5.184C10.032 4.608 10.296 3.888 10.584 3.024C10.488 2.592 10.608 2.196 10.944 1.836C11.280 1.476 11.496 0.936 11.592 0.216C11.832-0.312 12.108-0.948 12.420-1.692C12.732-2.436 13.128-3.336 13.608-4.392C13.656-4.584 13.716-4.740 13.788-4.860C13.860-4.980 13.944-5.112 14.040-5.256C14.376-5.928 14.640-6.576 14.832-7.200C15.072-7.632 15.288-8.064 15.480-8.496C15.672-8.928 15.816-9.360 15.912-9.792L16.416-11.016L17.208-13.032C17.352-13.224 17.472-13.440 17.568-13.680C17.664-13.920 17.760-14.064 17.856-14.112C18.528-14.352 19.056-14.448 19.440-14.400C19.824-14.352 20.280-14.424 20.808-14.616C21.192-14.712 21.552-14.760 21.888-14.760C22.224-14.760 22.584-14.808 22.968-14.904C23.064-14.904 23.160-14.952 23.256-15.048C23.352-15.144 23.448-15.192 23.544-15.192C23.592-15.192 23.652-15.168 23.724-15.120C23.796-15.072 23.880-15.072 23.976-15.120C24.264-15.360 24.552-15.420 24.840-15.300C25.128-15.180 25.416-15.144 25.704-15.192C26.328-15.384 27.012-15.468 27.756-15.444C28.500-15.420 29.232-15.456 29.952-15.552C29.952-15.360 29.916-15.096 29.844-14.760C29.772-14.424 29.712-14.208 29.664-14.112C29.424-13.296 29.160-12.528 28.872-11.808C28.584-11.088 28.320-10.368 28.080-9.648C27.840-9.024 27.660-8.580 27.540-8.316C27.420-8.052 27.312-7.824 27.216-7.632C27.120-7.440 27.012-7.200 26.892-6.912C26.772-6.624 26.616-6.144 26.424-5.472C26.040-4.368 25.680-3.348 25.344-2.412C25.008-1.476 24.576-0.432 24.048 0.720C23.904 1.152 23.748 1.596 23.580 2.052C23.412 2.508 23.256 3.000 23.112 3.528C23.016 3.912 22.932 4.284 22.860 4.644C22.788 5.004 22.752 5.376 22.752 5.760C22.800 6.096 22.824 6.444 22.824 6.804L22.824 7.992C22.872 9.096 23.400 9.768 24.408 10.008C24.600 10.104 24.768 10.152 24.912 10.152C25.056 10.152 25.200 10.248 25.344 10.440C25.632 10.728 25.944 10.728 26.280 10.440L26.856 9.720C26.952 9.624 27.072 9.540 27.216 9.468C27.360 9.396 27.480 9.360 27.576 9.360C27.816 9.408 27.960 9.348 28.008 9.180C28.056 9.012 28.128 8.880 28.224 8.784C28.320 8.688 28.392 8.640 28.440 8.640L28.872 8.856C28.968 8.568 29.076 8.304 29.196 8.064C29.316 7.824 29.424 7.512 29.520 7.128C29.616 6.840 29.748 6.576 29.916 6.336C30.084 6.096 30.216 5.832 30.312 5.544C30.552 5.016 30.780 4.488 30.996 3.960C31.212 3.432 31.392 2.904 31.536 2.376C31.776 1.800 31.968 1.284 32.112 0.828C32.256 0.372 32.400-0.072 32.544-0.504C32.688-0.936 32.832-1.392 32.976-1.872C33.120-2.352 33.312-2.904 33.552-3.528L34.704-6.624C35.328-7.872 35.760-9.084 36.000-10.260C36.240-11.436 36.672-12.696 37.296-14.040C37.392-14.328 37.488-14.688 37.584-15.120C37.680-15.552 37.872-15.792 38.160-15.840C38.544-15.936 39.024-15.996 39.600-16.020C40.176-16.044 40.656-16.104 41.040-16.200C41.376-16.296 41.628-16.356 41.796-16.380C41.964-16.404 42.120-16.416 42.264-16.416C42.408-16.416 42.612-16.428 42.876-16.452C43.140-16.476 43.560-16.560 44.136-16.704C44.376-16.848 44.616-16.872 44.856-16.776C45.096-16.824 45.300-16.920 45.468-17.064C45.636-17.208 45.840-17.280 46.080-17.280C46.032-17.376 46.068-17.460 46.188-17.532C46.308-17.604 46.452-17.676 46.620-17.748C46.788-17.820 46.944-17.892 47.088-17.964C47.232-18.036 47.328-18.096 47.376-18.144C47.472-18.240 47.580-18.336 47.700-18.432C47.820-18.528 47.808-18.648 47.664-18.792C47.616-18.840 47.736-18.996 48.024-19.260C48.312-19.524 48.432-19.728 48.384-19.872C48.288-19.968 48.276-20.004 48.348-19.980C48.420-19.956 48.528-20.064 48.672-20.304L48.168-21.384C48.072-21.480 48.108-21.648 48.276-21.888C48.444-22.128 48.432-22.272 48.240-22.320C48.144-22.464 48.036-22.620 47.916-22.788C47.796-22.956 47.688-23.088 47.592-23.184C47.352-23.184 47.088-23.232 46.800-23.328C46.560-23.424 46.248-23.484 45.864-23.508C45.480-23.532 45.240-23.520 45.144-23.472C45.000-23.520 44.844-23.436 44.676-23.220C44.508-23.004 44.376-22.944 44.280-23.040C43.992-23.328 43.680-23.424 43.344-23.328C42.816-23.328 42.552-23.304 42.552-23.256C42.552-23.208 42.600-23.172 42.696-23.148C42.792-23.124 42.852-23.088 42.876-23.040C42.900-22.992 42.672-22.968 42.192-22.968C41.952-22.920 41.736-22.908 41.544-22.932C41.352-22.956 41.136-22.968 40.896-22.968L40.824-23.112L40.968-23.472C41.160-23.904 41.388-24.456 41.652-25.128C41.916-25.800 42.192-26.484 42.480-27.180C42.768-27.876 43.056-28.524 43.344-29.124C43.632-29.724 43.896-30.216 44.136-30.600C44.184-30.600 44.256-30.720 44.352-30.960C44.544-31.488 44.724-31.980 44.892-32.436C45.060-32.892 45.264-33.384 45.504-33.912C45.696-34.296 45.864-34.596 46.008-34.812C46.152-35.028 46.272-35.244 46.368-35.460C46.464-35.676 46.572-35.904 46.692-36.144C46.812-36.384 46.968-36.720 47.160-37.152C47.352-37.392 47.508-37.656 47.628-37.944C47.748-38.232 47.880-38.496 48.024-38.736C48.504-39.360 48.864-40.008 49.104-40.680C49.344-41.352 49.584-42.072 49.824-42.840C49.920-43.272 50.064-43.656 50.256-43.992L50.688-44.640C50.784-44.784 50.856-44.952 50.904-45.144C50.952-45.336 51.012-45.564 51.084-45.828C51.156-46.092 51.240-46.440 51.336-46.872C51.432-47.256 51.528-47.616 51.624-47.952C51.720-48.288 51.696-48.648 51.552-49.032L50.868-50.400C50.700-50.736 50.352-50.976 49.824-51.120C48.864-51.504 47.856-51.540 46.800-51.228C45.744-50.916 44.976-50.256 44.496-49.248C44.352-48.912 44.184-48.588 43.992-48.276C43.800-47.964 43.656-47.688 43.560-47.448L42.552-45.432C42.168-44.712 41.832-43.944 41.544-43.128C41.256-42.312 40.920-41.544 40.536-40.824C40.296-40.296 40.092-39.864 39.924-39.528C39.756-39.192 39.612-38.868 39.492-38.556C39.372-38.244 39.240-37.908 39.096-37.548C38.952-37.188 38.760-36.720 38.520-36.144L36.432-30.960C35.856-29.856 35.304-28.680 34.776-27.432C34.248-26.184 33.744-24.912 33.264-23.616C33.216-23.472 33.168-23.352 33.120-23.256L32.904-22.824C32.856-22.584 32.664-22.416 32.328-22.320L29.376-21.888C28.800-21.792 28.272-21.744 27.792-21.744C27.312-21.744 26.760-21.696 26.136-21.600C25.512-21.504 24.876-21.468 24.228-21.492C23.580-21.516 22.968-21.456 22.392-21.312C22.152-21.216 21.948-21.192 21.780-21.240C21.612-21.288 21.408-21.288 21.168-21.240C21.120-21.576 21.168-21.912 21.312-22.248C21.456-22.584 21.624-22.992 21.816-23.472C22.200-24.576 22.584-25.548 22.968-26.388C23.352-27.228 23.736-28.128 24.120-29.088L26.568-34.776C26.664-35.016 26.748-35.244 26.820-35.460C26.892-35.676 27.000-35.880 27.144-36.072C27.288-36.744 27.468-37.356 27.684-37.908C27.900-38.460 28.104-38.976 28.296-39.456C28.344-39.600 28.428-39.828 28.548-40.140C28.668-40.452 28.800-40.776 28.944-41.112C29.088-41.448 29.208-41.772 29.304-42.084C29.400-42.396 29.448-42.624 29.448-42.768C29.544-42.960 29.652-43.140 29.772-43.308C29.892-43.476 29.952-43.680 29.952-43.920C30.192-44.400 30.420-44.868 30.636-45.324C30.852-45.780 31.008-46.248 31.104-46.728L31.320-46.872C31.416-47.160 31.464-47.508 31.464-47.916C31.464-48.324 31.536-48.576 31.680-48.672C31.776-49.008 31.812-49.416 31.788-49.896C31.764-50.376 31.584-50.736 31.248-50.976C30.864-51.888 30.216-52.536 29.304-52.920C28.728-53.016 28.296-53.040 28.008-52.992C27.720-52.944 27.312-52.944 26.784-52.992C26.640-52.944 26.472-52.884 26.280-52.812C26.088-52.740 25.944-52.704 25.848-52.704C25.608-52.464 25.344-52.284 25.056-52.164C24.768-52.044 24.456-51.840 24.120-51.552C23.688-50.736 23.316-49.836 23.004-48.852C22.692-47.868 22.416-46.968 22.176-46.152C22.176-45.768 22.008-45.228 21.672-44.532C21.336-43.836 21.120-43.272 21.024-42.840C20.880-42.312 20.688-41.676 20.448-40.932C20.208-40.188 19.968-39.552 19.728-39.024C19.344-38.352 18.996-37.620 18.684-36.828C18.372-36.036 18.072-35.280 17.784-34.560C17.736-34.464 17.724-34.356 17.748-34.236C17.772-34.116 17.736-33.960 17.640-33.768Z"></path>
            <path d="M57.960-29.664C57.576-29.568 57.324-29.520 57.204-29.520L56.520-29.520C56.424-29.520 56.304-29.508 56.160-29.484C56.016-29.460 55.872-29.400 55.728-29.304C55.584-29.064 55.488-28.920 55.440-28.872L55.008-28.440C54.816-28.248 54.672-28.056 54.576-27.864C54.000-27.096 53.460-26.256 52.956-25.344C52.452-24.432 51.864-23.136 51.192-21.456L49.968-18.720C49.728-18.192 49.572-17.832 49.500-17.640C49.428-17.448 49.380-17.292 49.356-17.172C49.332-17.052 49.296-16.920 49.248-16.776C49.200-16.632 49.080-16.392 48.888-16.056C48.648-15.720 48.504-15.360 48.456-14.976C48.408-14.592 48.312-14.208 48.168-13.824C48.024-13.392 47.916-13.128 47.844-13.032C47.772-12.936 47.712-12.852 47.664-12.780C47.616-12.708 47.556-12.588 47.484-12.420C47.412-12.252 47.280-11.880 47.088-11.304C46.800-10.296 46.512-9.108 46.224-7.740C45.936-6.372 45.852-5.052 45.972-3.780C46.092-2.508 46.524-1.428 47.268-0.540C48.012 0.348 49.248 0.816 50.976 0.864C52.032 0.912 53.088 0.768 54.144 0.432C55.200 0.096 56.208-0.348 57.168-0.900C58.128-1.452 59.064-2.076 59.976-2.772C60.888-3.468 61.752-4.152 62.568-4.824C63.048-5.352 63.396-5.748 63.612-6.012C63.828-6.276 64.020-6.516 64.188-6.732C64.356-6.948 64.572-7.212 64.836-7.524C65.100-7.836 65.544-8.328 66.168-9.000C66.456-9.288 66.768-9.660 67.104-10.116C67.440-10.572 67.776-11.052 68.112-11.556C68.448-12.060 68.772-12.528 69.084-12.960C69.396-13.392 69.648-13.728 69.840-13.968C70.032-14.256 70.296-14.676 70.632-15.228C70.968-15.780 71.316-16.368 71.676-16.992C72.036-17.616 72.372-18.204 72.684-18.756C72.996-19.308 73.224-19.728 73.368-20.016C73.464-20.256 73.560-20.520 73.656-20.808L73.944-21.672C73.848-21.768 73.824-21.852 73.872-21.924C73.920-21.996 73.896-22.128 73.800-22.320C73.800-22.512 73.824-22.644 73.872-22.716C73.920-22.788 73.968-22.920 74.016-23.112C73.728-23.016 73.608-22.932 73.656-22.860C73.704-22.788 73.608-22.704 73.368-22.608C73.368-22.800 73.344-22.968 73.296-23.112L73.584-24.192L73.512-24.192C73.464-24.192 73.440-24.240 73.440-24.336C73.248-24.192 73.080-23.976 72.936-23.688C72.504-23.736 72.264-23.856 72.216-24.048C72.168-24.240 72.048-24.240 71.856-24.048C71.712-24.192 71.604-24.312 71.532-24.408C71.460-24.504 71.304-24.528 71.064-24.480C70.968-24.528 70.764-24.384 70.452-24.048C70.140-23.712 69.936-23.496 69.840-23.400L69.480-23.040C69.432-22.992 69.480-22.968 69.624-22.968C69.768-22.968 69.744-22.920 69.552-22.824C69.456-22.776 69.384-22.776 69.336-22.824C69.192-22.632 69.156-22.464 69.228-22.320C69.300-22.176 69.168-22.008 68.832-21.816C68.640-21.480 68.460-21.204 68.292-20.988C68.124-20.772 67.992-20.544 67.896-20.304C67.512-19.872 67.032-19.260 66.456-18.468C65.880-17.676 65.292-16.860 64.692-16.020C64.092-15.180 63.492-14.388 62.892-13.644C62.292-12.900 61.824-12.360 61.488-12.024C60.720-11.208 59.784-10.272 58.680-9.216C57.576-8.160 56.568-7.344 55.656-6.768C55.272-6.624 55.056-6.504 55.008-6.408C54.960-6.312 54.744-6.168 54.360-5.976C53.832-5.784 53.436-5.808 53.172-6.048C52.908-6.288 52.824-6.648 52.920-7.128C53.160-8.568 53.616-9.996 54.288-11.412C54.960-12.828 55.692-14.268 56.484-15.732C57.276-17.196 58.044-18.708 58.788-20.268C59.532-21.828 60.096-23.448 60.480-25.128C60.528-25.512 60.600-25.896 60.696-26.280C60.792-26.664 60.768-27.048 60.624-27.432C60.480-27.672 60.324-27.912 60.156-28.152C59.988-28.392 59.856-28.632 59.760-28.872C59.616-29.112 59.448-29.232 59.256-29.232C59.064-29.280 58.848-29.352 58.608-29.448C58.368-29.544 58.152-29.616 57.960-29.664ZM60.336-30.816C60.768-30.720 61.176-30.768 61.560-30.960C61.944-31.152 62.328-31.296 62.712-31.392C63.048-31.632 63.348-31.884 63.612-32.148C63.876-32.412 64.056-32.736 64.152-33.120C64.152-33.264 64.176-33.396 64.224-33.516C64.272-33.636 64.320-33.744 64.368-33.840C64.464-34.464 64.308-35.208 63.900-36.072C63.492-36.936 62.880-37.464 62.064-37.656C61.440-37.704 60.888-37.680 60.408-37.584C59.928-37.488 59.424-37.368 58.896-37.224C58.752-37.176 58.656-37.128 58.608-37.080C58.560-37.032 58.488-37.008 58.392-37.008C58.104-36.768 57.840-36.540 57.600-36.324C57.360-36.108 57.192-35.880 57.096-35.640C56.856-35.304 56.736-34.968 56.736-34.632C56.784-34.344 56.808-34.044 56.808-33.732C56.808-33.420 56.856-33.096 56.952-32.760C57.048-32.424 57.228-32.100 57.492-31.788C57.756-31.476 58.080-31.272 58.464-31.176C58.800-30.936 59.100-30.804 59.364-30.780C59.628-30.756 59.952-30.768 60.336-30.816Z"></path>
            <path d="M91.944-14.184C91.656-13.800 91.296-13.332 90.864-12.780C90.432-12.228 89.988-11.676 89.532-11.124C89.076-10.572 88.632-10.056 88.200-9.576C87.768-9.096 87.456-8.760 87.264-8.568C86.640-8.040 85.896-7.488 85.032-6.912C84.168-6.336 83.448-5.832 82.872-5.400C82.200-4.872 81.420-4.392 80.532-3.960C79.644-3.528 78.888-3.096 78.264-2.664C77.880-2.424 77.532-2.256 77.220-2.160C76.908-2.064 76.608-1.992 76.320-1.944C76.032-1.896 75.720-1.848 75.384-1.800C75.048-1.752 74.664-1.680 74.232-1.584C74.136-1.536 73.884-1.524 73.476-1.548C73.068-1.572 72.768-1.608 72.576-1.656C72.048-1.704 71.664-1.872 71.424-2.160C71.184-2.448 71.004-2.784 70.884-3.168C70.764-3.552 70.692-3.936 70.668-4.320C70.644-4.704 70.632-5.040 70.632-5.328C70.632-6.048 70.656-6.744 70.704-7.416C70.752-8.088 70.896-8.784 71.136-9.504C71.328-10.320 71.592-11.136 71.928-11.952C72.264-12.768 72.576-13.560 72.864-14.328C72.960-14.664 73.068-14.988 73.188-15.300C73.308-15.612 73.488-15.936 73.728-16.272C74.736-18.720 75.888-21.132 77.184-23.508C78.480-25.884 79.896-28.152 81.432-30.312C82.392-31.416 83.292-32.508 84.132-33.588C84.972-34.668 85.872-35.760 86.832-36.864C87.360-37.392 87.876-37.956 88.380-38.556C88.884-39.156 89.424-39.696 90.000-40.176C91.104-41.232 92.160-42.192 93.168-43.056C94.176-43.920 95.352-44.736 96.696-45.504C96.792-45.600 97.080-45.816 97.560-46.152C98.040-46.488 98.304-46.704 98.352-46.800C98.832-47.088 99.408-47.364 100.080-47.628C100.752-47.892 101.388-48.048 101.988-48.096C102.588-48.144 103.044-48.036 103.356-47.772C103.668-47.508 103.704-46.992 103.464-46.224C103.368-45.840 103.176-45.408 102.888-44.928C102.600-44.448 102.360-44.016 102.168-43.632C101.784-42.816 101.556-42.312 101.484-42.120C101.412-41.928 101.376-41.796 101.376-41.724C101.376-41.652 101.316-41.532 101.196-41.364C101.076-41.196 100.800-40.728 100.368-39.960C100.080-39.384 99.780-38.928 99.468-38.592C99.156-38.256 98.904-37.848 98.712-37.368C98.616-37.320 98.568-37.200 98.568-37.008C98.664-36.672 98.544-36.348 98.208-36.036C97.872-35.724 97.656-35.424 97.560-35.136C97.512-34.896 97.464-34.692 97.416-34.524C97.368-34.356 97.344-34.152 97.344-33.912C97.296-33.720 97.296-33.504 97.344-33.264L97.488-32.544C97.488-32.304 97.512-32.100 97.560-31.932C97.608-31.764 97.632-31.608 97.632-31.464C97.680-31.128 97.788-30.828 97.956-30.564C98.124-30.300 98.304-30.048 98.496-29.808C98.784-29.472 99.156-29.316 99.612-29.340C100.068-29.364 100.416-29.256 100.656-29.016L101.016-29.016C101.448-29.160 101.880-29.268 102.312-29.340C102.744-29.412 103.152-29.664 103.536-30.096C103.680-30.528 103.944-30.816 104.328-30.960C104.520-30.960 104.616-31.032 104.616-31.176C105.096-31.896 105.420-32.628 105.588-33.372C105.756-34.116 106.008-34.872 106.344-35.640C106.536-36.120 106.668-36.432 106.740-36.576C106.812-36.720 106.992-36.984 107.280-37.368C107.376-37.608 107.496-37.848 107.640-38.088C107.784-38.328 107.904-38.568 108.000-38.808L108.396-39.600C108.420-39.648 108.432-39.660 108.432-39.636C108.432-39.612 108.444-39.624 108.468-39.672C108.492-39.720 108.600-39.960 108.792-40.392C108.936-40.680 109.020-40.860 109.044-40.932C109.068-41.004 109.092-41.064 109.116-41.112C109.140-41.160 109.152-41.220 109.152-41.292C109.152-41.364 109.200-41.544 109.296-41.832C109.680-42.936 110.064-44.184 110.448-45.576C110.832-46.968 110.928-48.288 110.736-49.536C110.640-51.216 110.208-52.644 109.440-53.820C108.672-54.996 107.520-55.632 105.984-55.728C105.648-55.968 105.300-56.088 104.940-56.088L103.824-56.088C103.296-56.088 102.804-56.076 102.348-56.052C101.892-56.028 101.436-55.956 100.980-55.836C100.524-55.716 99.996-55.548 99.396-55.332C98.796-55.116 98.088-54.864 97.272-54.576C96.264-54.048 95.280-53.496 94.320-52.920C93.360-52.344 92.424-51.720 91.512-51.048C90.264-50.040 88.968-49.056 87.624-48.096C86.280-47.136 85.056-46.032 83.952-44.784C83.328-44.112 82.668-43.428 81.972-42.732L79.920-40.680C79.776-40.440 79.608-40.224 79.416-40.032C79.224-39.840 79.056-39.624 78.912-39.384C78.480-38.760 78.000-38.184 77.472-37.656C76.944-37.128 76.464-36.576 76.032-36.000C75.408-35.088 74.784-34.164 74.160-33.228C73.536-32.292 72.936-31.344 72.360-30.384C72.168-29.856 71.916-29.388 71.604-28.980C71.292-28.572 71.016-28.128 70.776-27.648C69.816-25.824 68.856-23.916 67.896-21.924C66.936-19.932 66.048-17.808 65.232-15.552C64.656-13.824 64.092-12.036 63.540-10.188C62.988-8.340 62.712-6.528 62.712-4.752C62.760-4.464 62.748-4.104 62.676-3.672C62.604-3.240 62.616-2.832 62.712-2.448C62.760-2.112 62.808-1.764 62.856-1.404C62.904-1.044 62.976-0.696 63.072-0.360C63.168 0.312 63.384 0.984 63.720 1.656C64.056 2.328 64.512 2.928 65.088 3.456C65.184 3.600 65.244 3.720 65.268 3.816C65.292 3.912 65.352 4.008 65.448 4.104C66.456 4.824 67.428 5.340 68.364 5.652C69.300 5.964 70.236 6.132 71.172 6.156C72.108 6.180 73.056 6.120 74.016 5.976C74.976 5.832 75.984 5.664 77.040 5.472C78.384 5.040 79.944 4.332 81.720 3.348C83.496 2.364 85.056 1.296 86.400 0.144C86.496 0.144 86.652-0.072 86.868-0.504C87.084-0.936 87.264-1.104 87.408-1.008C87.408-0.912 87.396-0.840 87.372-0.792C87.348-0.744 87.336-0.696 87.336-0.648C87.048 0.024 86.832 0.540 86.688 0.900C86.544 1.260 86.400 1.584 86.256 1.872C86.112 2.160 85.944 2.484 85.752 2.844L84.888 4.464C84.792 4.752 84.636 5.040 84.420 5.328C84.204 5.616 84.048 6.000 83.952 6.480C83.856 7.008 83.760 7.404 83.664 7.668C83.568 7.932 83.532 8.172 83.556 8.388C83.580 8.604 83.664 8.844 83.808 9.108C83.952 9.372 84.192 9.744 84.528 10.224C84.576 10.464 84.780 10.680 85.140 10.872C85.500 11.064 85.800 11.160 86.040 11.160C86.232 11.256 86.460 11.316 86.724 11.340C86.988 11.364 87.216 11.400 87.408 11.448C87.888 11.544 88.524 11.424 89.316 11.088C90.108 10.752 90.624 10.368 90.864 9.936C90.816 9.840 90.828 9.744 90.900 9.648C90.972 9.552 91.032 9.456 91.080 9.360L91.512 7.992C91.608 7.656 91.668 7.440 91.692 7.344C91.716 7.248 91.740 7.176 91.764 7.128C91.788 7.080 91.812 7.008 91.836 6.912C91.860 6.816 91.944 6.624 92.088 6.336C92.184 5.952 92.256 5.652 92.304 5.436C92.352 5.220 92.424 4.968 92.520 4.680C92.664 4.248 92.736 4.008 92.736 3.960L92.736 3.780C92.736 3.708 92.784 3.528 92.880 3.240C92.976 2.952 93.192 2.376 93.528 1.512C93.960 0.408 94.380-0.720 94.788-1.872C95.196-3.024 95.616-4.176 96.048-5.328C96.288-6.000 96.612-6.792 97.020-7.704C97.428-8.616 97.752-9.408 97.992-10.080C98.232-10.608 98.580-11.280 99.036-12.096C99.492-12.912 99.888-13.752 100.224-14.616C100.320-14.856 100.416-15.012 100.512-15.084C100.608-15.156 100.704-15.240 100.800-15.336C101.184-15.528 101.460-15.612 101.628-15.588C101.796-15.564 102.072-15.600 102.456-15.696C102.888-15.792 103.176-15.840 103.320-15.840C103.464-15.840 103.536-15.864 103.536-15.912L103.896-15.912C104.040-15.912 104.232-15.936 104.472-15.984C104.664-16.032 104.868-16.068 105.084-16.092C105.300-16.116 105.480-16.200 105.624-16.344C105.864-16.488 106.104-16.560 106.344-16.560C106.584-16.560 106.824-16.584 107.064-16.632C107.112-16.632 107.184-16.656 107.280-16.704C107.376-16.752 107.472-16.776 107.568-16.776C107.616-17.016 107.628-17.208 107.604-17.352C107.580-17.496 107.520-17.688 107.424-17.928C107.664-17.976 107.928-18.036 108.216-18.108C108.504-18.180 108.816-18.264 109.152-18.360L108.864-18.504C108.624-18.744 108.528-18.912 108.576-19.008C108.576-19.056 108.564-19.092 108.540-19.116C108.516-19.140 108.504-19.176 108.504-19.224L108.504-19.296C108.648-19.440 108.744-19.560 108.792-19.656C108.840-19.752 108.912-19.824 109.008-19.872C108.912-20.064 108.912-20.232 109.008-20.376C108.912-20.568 108.792-20.592 108.648-20.448C108.504-20.304 108.360-20.352 108.216-20.592C108.264-20.688 108.348-20.724 108.468-20.700C108.588-20.676 108.648-20.784 108.648-21.024L108.324-21.024C108.204-21.024 108.096-21.048 108.000-21.096C107.904-21.096 107.832-21.120 107.784-21.168C108.024-21.408 108.240-21.576 108.432-21.672L107.568-21.672C107.280-21.672 107.136-21.696 107.136-21.744C107.040-21.888 107.004-21.984 107.028-22.032C107.052-22.080 107.100-22.104 107.172-22.104L107.316-22.104C107.340-22.104 107.304-22.104 107.208-22.104C106.872-22.680 106.680-23.004 106.632-23.076C106.584-23.148 106.344-23.160 105.912-23.112C105.288-23.112 104.856-23.052 104.616-22.932C104.376-22.812 103.944-22.728 103.320-22.680C102.984-22.632 102.324-22.512 101.340-22.320C100.356-22.128 99.408-21.960 98.496-21.816C96.960-21.624 95.544-21.432 94.248-21.240C92.952-21.048 91.488-20.832 89.856-20.592C89.424-20.544 89.124-20.508 88.956-20.484C88.788-20.460 88.644-20.424 88.524-20.376C88.404-20.328 88.236-20.280 88.020-20.232C87.804-20.184 87.456-20.136 86.976-20.088C86.688-19.992 86.316-19.956 85.860-19.980C85.404-20.004 85.056-19.968 84.816-19.872C84.576-19.824 84.348-19.836 84.132-19.908C83.916-19.980 83.736-19.872 83.592-19.584C83.304-19.392 83.040-19.176 82.800-18.936C82.560-18.696 82.296-18.456 82.008-18.216C81.816-17.928 81.684-17.736 81.612-17.640C81.540-17.544 81.552-17.280 81.648-16.848C81.744-16.512 81.816-16.176 81.864-15.840C81.912-15.504 81.984-15.216 82.080-14.976C82.320-14.256 82.608-13.824 82.944-13.680C83.424-13.296 83.832-13.104 84.168-13.104C84.552-13.104 84.816-13.056 84.960-12.960C85.344-12.864 85.956-12.912 86.796-13.104C87.636-13.296 88.320-13.464 88.848-13.608C89.424-13.656 89.820-13.716 90.036-13.788C90.252-13.860 90.624-13.944 91.152-14.040C91.344-14.136 91.608-14.184 91.944-14.184Z"></path>
            <path d="M118.224-10.872C117.024-9.720 116.184-9.072 115.704-8.928C115.224-8.784 114.948-8.868 114.876-9.180C114.804-9.492 114.852-9.924 115.020-10.476C115.188-11.028 115.320-11.424 115.416-11.664L115.776-12.744L116.028-13.500C116.100-13.716 116.196-13.944 116.316-14.184C116.436-14.424 116.616-14.736 116.856-15.120C117.048-15.648 117.264-16.128 117.504-16.560C117.744-16.992 117.984-17.472 118.224-18.000L118.944-19.800C119.136-20.280 119.424-20.880 119.808-21.600C120.048-22.080 120.252-22.512 120.420-22.896C120.588-23.280 120.840-23.736 121.176-24.264C121.416-24.840 121.776-25.536 122.256-26.352C122.736-27.168 123.144-27.912 123.480-28.584C123.720-29.112 123.900-29.640 124.020-30.168C124.140-30.696 124.152-31.224 124.056-31.752C124.056-32.040 124.008-32.232 123.912-32.328C123.768-32.376 123.600-32.532 123.408-32.796C123.216-33.060 123.048-33.240 122.904-33.336C122.712-33.432 122.520-33.576 122.328-33.768C122.136-33.960 121.992-34.152 121.896-34.344L119.952-34.344C119.616-34.344 119.436-34.284 119.412-34.164C119.388-34.044 119.184-33.936 118.800-33.840C118.704-33.840 118.512-33.792 118.224-33.696C118.128-33.552 118.056-33.396 118.008-33.228C117.960-33.060 117.888-32.928 117.792-32.832C117.552-32.544 117.408-32.244 117.360-31.932C117.312-31.620 117.240-31.296 117.144-30.960C116.904-30.624 116.700-30.276 116.532-29.916C116.364-29.556 116.208-29.184 116.064-28.800C115.488-27.744 115.068-26.772 114.804-25.884C114.540-24.996 114.168-24.024 113.688-22.968C113.544-22.680 113.352-22.260 113.112-21.708C112.872-21.156 112.632-20.688 112.392-20.304C111.912-19.344 111.588-18.612 111.420-18.108C111.252-17.604 110.952-16.992 110.520-16.272C110.472-15.984 110.364-15.672 110.196-15.336L109.800-14.544C109.416-13.728 109.068-12.900 108.756-12.060C108.444-11.220 108.240-10.320 108.144-9.360C108.048-8.736 107.964-8.088 107.892-7.416C107.820-6.744 107.832-6.096 107.928-5.472C108.120-4.368 108.480-3.492 109.008-2.844C109.536-2.196 110.232-1.656 111.096-1.224C111.768-1.080 112.296-0.984 112.680-0.936C113.064-0.888 113.520-0.936 114.048-1.080C114.912-1.272 115.512-1.416 115.848-1.512C116.184-1.608 116.544-1.776 116.928-2.016C117.600-2.592 118.272-3.072 118.944-3.456C119.616-3.840 120.312-4.464 121.032-5.328C121.416-5.664 121.788-6.060 122.148-6.516C122.508-6.972 122.928-7.392 123.408-7.776C123.744-8.208 124.044-8.604 124.308-8.964C124.572-9.324 124.896-9.672 125.280-10.008C125.280-9.912 125.256-9.696 125.208-9.360C125.160-9.024 125.112-8.664 125.064-8.280C125.016-7.896 124.968-7.536 124.920-7.200C124.872-6.864 124.848-6.672 124.848-6.624C124.944-6.432 124.980-6.204 124.956-5.940C124.932-5.676 124.968-5.472 125.064-5.328C125.112-4.800 125.136-4.428 125.136-4.212C125.136-3.996 125.148-3.804 125.172-3.636C125.196-3.468 125.268-3.264 125.388-3.024C125.508-2.784 125.712-2.400 126.000-1.872C126.144-1.776 126.264-1.668 126.360-1.548C126.456-1.428 126.576-1.272 126.720-1.080C127.344-0.360 128.052-0.036 128.844-0.108C129.636-0.180 130.536-0.168 131.544-0.072C131.736-0.072 132.024-0.132 132.408-0.252C132.792-0.372 133.188-0.504 133.596-0.648C134.004-0.792 134.400-0.936 134.784-1.080C135.168-1.224 135.432-1.368 135.576-1.512C136.248-1.944 136.956-2.484 137.700-3.132C138.444-3.780 139.128-4.488 139.752-5.256C140.472-6.312 141.168-7.200 141.840-7.920C142.512-8.640 143.040-9.408 143.424-10.224C144.240-11.328 145.044-12.420 145.836-13.500C146.628-14.580 147.288-15.720 147.816-16.920C147.912-17.160 148.008-17.376 148.104-17.568C148.200-17.760 148.296-17.928 148.392-18.072C148.392-18.168 148.428-18.276 148.500-18.396C148.572-18.516 148.584-18.624 148.536-18.720C148.440-19.008 148.440-19.224 148.536-19.368C148.632-19.512 148.656-19.776 148.608-20.160C148.608-20.352 148.560-20.424 148.464-20.376C148.416-20.376 148.296-20.352 148.104-20.304C148.200-20.592 148.308-20.856 148.428-21.096C148.548-21.336 148.512-21.600 148.320-21.888L147.888-21.744C147.744-21.840 147.696-22.008 147.744-22.248C147.792-22.488 147.672-22.608 147.384-22.608C147.336-22.656 147.312-22.668 147.312-22.644C147.312-22.620 147.288-22.656 147.240-22.752C147.192-22.704 147.120-22.680 147.024-22.680L146.952-22.680C146.856-22.776 146.772-22.728 146.700-22.536C146.628-22.344 146.472-22.272 146.232-22.320C146.136-22.512 146.160-22.656 146.304-22.752C146.448-22.848 146.424-22.944 146.232-23.040C145.896-22.800 145.680-22.584 145.584-22.392C145.488-22.200 145.392-21.984 145.296-21.744C145.056-21.744 144.912-21.720 144.864-21.672C144.816-21.624 144.720-21.480 144.576-21.240C144.048-20.568 143.592-19.872 143.208-19.152C142.920-18.768 142.572-18.288 142.164-17.712C141.756-17.136 141.336-16.524 140.904-15.876L139.680-14.040C139.296-13.464 138.960-12.984 138.672-12.600C138.288-12.120 137.904-11.592 137.520-11.016C137.136-10.440 136.752-9.960 136.368-9.576C136.176-9.384 135.804-9.024 135.252-8.496C134.700-7.968 134.124-7.500 133.524-7.092C132.924-6.684 132.360-6.432 131.832-6.336C131.304-6.240 130.992-6.552 130.896-7.272C130.848-7.368 130.836-7.440 130.860-7.488C130.884-7.536 130.896-7.608 130.896-7.704C130.848-8.376 130.848-9.000 130.896-9.576C130.944-10.152 131.088-10.752 131.328-11.376C131.328-11.664 131.388-12.108 131.508-12.708C131.628-13.308 131.784-13.956 131.976-14.652C132.168-15.348 132.372-16.020 132.588-16.668L133.128-18.288C133.464-18.960 133.776-19.656 134.064-20.376C134.352-21.096 134.616-21.792 134.856-22.464C135.384-23.424 135.876-24.444 136.332-25.524C136.788-26.604 137.256-27.624 137.736-28.584C137.832-28.968 138.012-29.328 138.276-29.664C138.540-30.000 138.648-30.336 138.600-30.672C138.744-30.960 138.756-31.308 138.636-31.716C138.516-32.124 138.336-32.496 138.096-32.832C138.000-33.120 137.832-33.360 137.592-33.552C137.352-33.744 137.112-33.888 136.872-33.984C136.680-33.984 136.536-34.008 136.440-34.056C135.912-34.296 135.360-34.344 134.784-34.200C134.496-34.200 134.304-34.140 134.208-34.020C134.112-33.900 133.944-33.720 133.704-33.480C133.560-33.432 133.392-33.408 133.200-33.408C133.104-33.312 133.020-33.204 132.948-33.084C132.876-32.964 132.792-32.832 132.696-32.688C132.600-32.592 132.516-32.460 132.444-32.292C132.372-32.124 132.288-31.968 132.192-31.824C132.000-31.440 131.820-31.140 131.652-30.924C131.484-30.708 131.352-30.504 131.256-30.312C130.968-29.832 130.656-29.280 130.320-28.656C129.984-28.032 129.672-27.480 129.384-27.000C129.000-26.328 128.676-25.656 128.412-24.984C128.148-24.312 127.776-23.592 127.296-22.824C127.008-22.536 126.804-22.200 126.684-21.816C126.564-21.432 126.336-21.048 126.000-20.664C125.808-20.280 125.676-20.028 125.604-19.908C125.532-19.788 125.484-19.692 125.460-19.620C125.436-19.548 125.376-19.464 125.280-19.368L124.704-18.792C124.656-18.696 124.608-18.612 124.560-18.540C124.512-18.468 124.464-18.384 124.416-18.288L123.408-16.704C123.072-16.176 122.664-15.720 122.184-15.336C121.992-15.000 121.788-14.736 121.572-14.544C121.356-14.352 121.152-14.136 120.960-13.896C120.576-13.512 120.132-13.008 119.628-12.384C119.124-11.760 118.656-11.256 118.224-10.872ZM147.240-23.328C147.192-23.232 147.168-23.112 147.168-22.968C147.360-23.160 147.384-23.280 147.240-23.328ZM147.168-22.968C147.072-22.872 147.024-22.776 147.024-22.680C147.120-22.776 147.168-22.872 147.168-22.968Z"></path>
            <path d="M163.872-33.120L163.008-31.392L163.008-31.464C162.768-31.848 162.564-32.220 162.396-32.580C162.228-32.940 161.988-33.240 161.676-33.480C161.364-33.720 160.932-33.900 160.380-34.020C159.828-34.140 159.072-34.176 158.112-34.128C157.920-34.128 157.752-34.092 157.608-34.020C157.464-33.948 157.320-33.888 157.176-33.840C155.976-33.552 154.860-33.096 153.828-32.472C152.796-31.848 151.824-31.116 150.912-30.276C150.000-29.436 149.124-28.524 148.284-27.540C147.444-26.556 146.640-25.584 145.872-24.624C145.776-24.480 145.632-24.276 145.440-24.012C145.248-23.748 145.044-23.472 144.828-23.184C144.612-22.896 144.408-22.620 144.216-22.356C144.024-22.092 143.904-21.888 143.856-21.744C143.280-20.784 142.608-19.764 141.840-18.684C141.072-17.604 140.448-16.488 139.968-15.336C139.824-14.904 139.644-14.460 139.428-14.004C139.212-13.548 139.032-13.056 138.888-12.528C138.888-12.288 138.792-12.048 138.600-11.808C138.408-11.568 138.288-11.328 138.240-11.088C137.856-10.464 137.652-9.780 137.628-9.036C137.604-8.292 137.496-7.536 137.304-6.768C137.208-6.480 137.160-6.216 137.160-5.976C137.160-5.736 137.112-5.520 137.016-5.328C136.968-4.512 137.028-3.840 137.196-3.312C137.364-2.784 137.568-2.160 137.808-1.440C137.808-1.392 137.820-1.368 137.844-1.368C137.868-1.368 137.880-1.344 137.880-1.296C138.552-0.048 139.488 0.792 140.688 1.224C141.888 1.656 143.424 1.536 145.296 0.864C145.824 0.624 146.424 0.324 147.096-0.036C147.768-0.396 148.368-0.840 148.896-1.368C148.992-1.512 149.136-1.656 149.328-1.800C149.520-1.944 149.688-2.112 149.832-2.304L151.920-4.392C152.640-5.112 153.336-5.904 154.008-6.768C154.104-6.816 154.260-6.936 154.476-7.128C154.692-7.320 154.848-7.512 154.944-7.704C154.848-7.224 154.800-6.852 154.800-6.588L154.800-5.688C154.848-4.920 154.896-4.296 154.944-3.816C154.992-3.336 155.136-2.784 155.376-2.160C155.664-1.488 156.048-0.936 156.528-0.504C157.392 0.168 158.364 0.540 159.444 0.612C160.524 0.684 161.628 0.528 162.756 0.144C163.884-0.240 164.964-0.804 165.996-1.548C167.028-2.292 167.904-3.096 168.624-3.960C168.720-4.056 168.792-4.116 168.840-4.140C168.888-4.164 168.936-4.224 168.984-4.320C169.656-4.944 170.268-5.640 170.820-6.408C171.372-7.176 171.912-7.968 172.440-8.784C172.776-9.216 173.280-9.936 173.952-10.944C174.624-11.952 175.320-13.032 176.040-14.184C176.760-15.336 177.432-16.428 178.056-17.460C178.680-18.492 179.088-19.248 179.280-19.728C179.376-20.112 179.472-20.472 179.568-20.808L179.856-21.816L179.856-22.032C179.856-22.128 179.880-22.200 179.928-22.248C179.784-22.200 179.688-22.140 179.640-22.068C179.592-21.996 179.544-21.936 179.496-21.888L179.640-23.184L179.496-22.896C179.304-23.136 179.196-23.364 179.172-23.580C179.148-23.796 179.088-24.024 178.992-24.264L178.992-24.336L178.848-24.192L178.848-24.336C178.656-24.096 178.572-24.024 178.596-24.120C178.620-24.216 178.560-24.192 178.416-24.048C178.320-24.144 178.260-24.216 178.236-24.264C178.212-24.312 178.176-24.360 178.128-24.408C178.080-24.456 178.044-24.408 178.020-24.264C177.996-24.120 177.936-24.072 177.840-24.120C177.840-24.216 177.852-24.288 177.876-24.336C177.900-24.384 177.936-24.480 177.984-24.624C177.936-24.576 177.888-24.576 177.840-24.624C177.792-24.672 177.744-24.648 177.696-24.552C177.504-24.456 177.432-24.348 177.480-24.228C177.528-24.108 177.456-24.000 177.264-23.904C177.264-23.760 177.216-23.712 177.120-23.760C177.024-23.808 176.928-23.832 176.832-23.832C176.592-23.784 176.292-23.640 175.932-23.400C175.572-23.160 175.344-22.968 175.248-22.824C175.152-22.632 175.044-22.452 174.924-22.284C174.804-22.116 174.672-21.960 174.528-21.816C174.432-21.816 174.396-21.756 174.420-21.636C174.444-21.516 174.432-21.408 174.384-21.312C174.192-21.168 173.976-20.964 173.736-20.700C173.496-20.436 173.328-20.184 173.232-19.944C172.992-19.560 172.584-18.876 172.008-17.892C171.432-16.908 170.784-15.840 170.064-14.688C169.344-13.536 168.612-12.420 167.868-11.340C167.124-10.260 166.512-9.456 166.032-8.928C165.504-8.256 164.916-7.644 164.268-7.092C163.620-6.540 163.032-6.168 162.504-5.976C162.264-5.880 162.024-5.796 161.784-5.724C161.544-5.652 161.280-5.640 160.992-5.688C160.464-5.880 160.200-6.312 160.200-6.984C160.152-8.328 160.224-9.420 160.416-10.260C160.608-11.100 160.824-11.976 161.064-12.888C161.592-14.472 162.084-15.768 162.540-16.776C162.996-17.784 163.488-18.960 164.016-20.304C164.400-21.216 164.832-22.164 165.312-23.148C165.792-24.132 166.296-25.104 166.824-26.064C166.968-26.352 167.160-26.712 167.400-27.144C167.640-27.576 167.868-28.020 168.084-28.476C168.300-28.932 168.492-29.400 168.660-29.880C168.828-30.360 168.912-30.768 168.912-31.104C169.152-31.440 169.272-31.728 169.272-31.968C169.416-32.352 169.404-32.664 169.236-32.904C169.068-33.144 168.912-33.456 168.768-33.840C168.720-33.936 168.648-33.960 168.552-33.912C168.456-33.864 168.384-33.936 168.336-34.128C168.192-34.128 168.072-34.080 167.976-33.984C167.880-33.888 167.808-33.936 167.760-34.128C167.664-34.416 167.544-34.560 167.400-34.560C167.112-34.608 166.920-34.644 166.824-34.668C166.728-34.692 166.488-34.656 166.104-34.560C165.720-34.416 165.312-34.272 164.880-34.128C164.448-33.984 164.112-33.648 163.872-33.120ZM159.120-28.080C159.408-28.176 159.624-27.996 159.768-27.540C159.912-27.084 160.032-26.616 160.128-26.136L159.768-25.128C159.864-24.936 159.792-24.732 159.552-24.516C159.312-24.300 159.144-24.048 159.048-23.760C159.000-23.520 158.892-23.328 158.724-23.184C158.556-23.040 158.472-22.824 158.472-22.536C158.376-22.392 158.328-22.308 158.328-22.284C158.328-22.260 158.304-22.152 158.256-21.960C157.680-20.568 156.888-19.224 155.880-17.928C155.208-16.824 154.596-15.852 154.044-15.012C153.492-14.172 152.880-13.344 152.208-12.528C151.776-11.904 151.356-11.400 150.948-11.016C150.540-10.632 150.096-10.152 149.616-9.576C147.984-7.704 146.760-6.708 145.944-6.588C145.128-6.468 144.648-6.816 144.504-7.632C144.360-8.448 144.480-9.516 144.864-10.836C145.248-12.156 145.848-13.368 146.664-14.472C146.856-14.760 147.012-15.000 147.132-15.192C147.252-15.384 147.360-15.564 147.456-15.732C147.552-15.900 147.648-16.080 147.744-16.272C147.840-16.464 148.008-16.728 148.248-17.064C149.064-18.264 149.952-19.524 150.912-20.844C151.872-22.164 152.784-23.256 153.648-24.120C154.080-24.696 154.416-25.092 154.656-25.308C154.896-25.524 155.256-25.800 155.736-26.136C155.880-26.328 155.928-26.424 155.880-26.424C155.832-26.424 155.976-26.448 156.312-26.496C156.408-26.544 156.528-26.664 156.672-26.856C156.816-27.048 156.936-27.144 157.032-27.144L157.536-27.396C157.680-27.468 157.824-27.552 157.968-27.648C158.160-27.696 158.328-27.792 158.472-27.936C158.664-28.032 158.736-28.044 158.688-27.972C158.640-27.900 158.712-27.912 158.904-28.008L158.976-28.008C159.024-28.008 159.072-28.032 159.120-28.080ZM178.992-24.336L178.992-24.264C178.992-24.312 179.004-24.360 179.028-24.408C179.052-24.456 179.040-24.432 178.992-24.336Z"></path>
            <path d="M180.648-29.664C180.264-29.568 180.012-29.520 179.892-29.520L179.208-29.520C179.112-29.520 178.992-29.508 178.848-29.484C178.704-29.460 178.560-29.400 178.416-29.304C178.272-29.064 178.176-28.920 178.128-28.872L177.696-28.440C177.504-28.248 177.360-28.056 177.264-27.864C176.688-27.096 176.148-26.256 175.644-25.344C175.140-24.432 174.552-23.136 173.880-21.456L172.656-18.720C172.416-18.192 172.260-17.832 172.188-17.640C172.116-17.448 172.068-17.292 172.044-17.172C172.020-17.052 171.984-16.920 171.936-16.776C171.888-16.632 171.768-16.392 171.576-16.056C171.336-15.720 171.192-15.360 171.144-14.976C171.096-14.592 171-14.208 170.856-13.824C170.712-13.392 170.604-13.128 170.532-13.032C170.460-12.936 170.400-12.852 170.352-12.780C170.304-12.708 170.244-12.588 170.172-12.420C170.100-12.252 169.968-11.880 169.776-11.304C169.488-10.296 169.200-9.108 168.912-7.740C168.624-6.372 168.540-5.052 168.660-3.780C168.780-2.508 169.212-1.428 169.956-0.540C170.700 0.348 171.936 0.816 173.664 0.864C174.720 0.912 175.776 0.768 176.832 0.432C177.888 0.096 178.896-0.348 179.856-0.900C180.816-1.452 181.752-2.076 182.664-2.772C183.576-3.468 184.440-4.152 185.256-4.824C185.736-5.352 186.084-5.748 186.300-6.012C186.516-6.276 186.708-6.516 186.876-6.732C187.044-6.948 187.260-7.212 187.524-7.524C187.788-7.836 188.232-8.328 188.856-9.000C189.144-9.288 189.456-9.660 189.792-10.116C190.128-10.572 190.464-11.052 190.800-11.556C191.136-12.060 191.460-12.528 191.772-12.960C192.084-13.392 192.336-13.728 192.528-13.968C192.720-14.256 192.984-14.676 193.320-15.228C193.656-15.780 194.004-16.368 194.364-16.992C194.724-17.616 195.060-18.204 195.372-18.756C195.684-19.308 195.912-19.728 196.056-20.016C196.152-20.256 196.248-20.520 196.344-20.808L196.632-21.672C196.536-21.768 196.512-21.852 196.560-21.924C196.608-21.996 196.584-22.128 196.488-22.320C196.488-22.512 196.512-22.644 196.560-22.716C196.608-22.788 196.656-22.920 196.704-23.112C196.416-23.016 196.296-22.932 196.344-22.860C196.392-22.788 196.296-22.704 196.056-22.608C196.056-22.800 196.032-22.968 195.984-23.112L196.272-24.192L196.200-24.192C196.152-24.192 196.128-24.240 196.128-24.336C195.936-24.192 195.768-23.976 195.624-23.688C195.192-23.736 194.952-23.856 194.904-24.048C194.856-24.240 194.736-24.240 194.544-24.048C194.400-24.192 194.292-24.312 194.220-24.408C194.148-24.504 193.992-24.528 193.752-24.480C193.656-24.528 193.452-24.384 193.140-24.048C192.828-23.712 192.624-23.496 192.528-23.400L192.168-23.040C192.120-22.992 192.168-22.968 192.312-22.968C192.456-22.968 192.432-22.920 192.240-22.824C192.144-22.776 192.072-22.776 192.024-22.824C191.880-22.632 191.844-22.464 191.916-22.320C191.988-22.176 191.856-22.008 191.520-21.816C191.328-21.480 191.148-21.204 190.980-20.988C190.812-20.772 190.680-20.544 190.584-20.304C190.200-19.872 189.720-19.260 189.144-18.468C188.568-17.676 187.980-16.860 187.380-16.020C186.780-15.180 186.180-14.388 185.580-13.644C184.980-12.900 184.512-12.360 184.176-12.024C183.408-11.208 182.472-10.272 181.368-9.216C180.264-8.160 179.256-7.344 178.344-6.768C177.960-6.624 177.744-6.504 177.696-6.408C177.648-6.312 177.432-6.168 177.048-5.976C176.520-5.784 176.124-5.808 175.860-6.048C175.596-6.288 175.512-6.648 175.608-7.128C175.848-8.568 176.304-9.996 176.976-11.412C177.648-12.828 178.380-14.268 179.172-15.732C179.964-17.196 180.732-18.708 181.476-20.268C182.220-21.828 182.784-23.448 183.168-25.128C183.216-25.512 183.288-25.896 183.384-26.280C183.480-26.664 183.456-27.048 183.312-27.432C183.168-27.672 183.012-27.912 182.844-28.152C182.676-28.392 182.544-28.632 182.448-28.872C182.304-29.112 182.136-29.232 181.944-29.232C181.752-29.280 181.536-29.352 181.296-29.448C181.056-29.544 180.840-29.616 180.648-29.664ZM183.024-30.816C183.456-30.720 183.864-30.768 184.248-30.960C184.632-31.152 185.016-31.296 185.400-31.392C185.736-31.632 186.036-31.884 186.300-32.148C186.564-32.412 186.744-32.736 186.840-33.120C186.840-33.264 186.864-33.396 186.912-33.516C186.960-33.636 187.008-33.744 187.056-33.840C187.152-34.464 186.996-35.208 186.588-36.072C186.180-36.936 185.568-37.464 184.752-37.656C184.128-37.704 183.576-37.680 183.096-37.584C182.616-37.488 182.112-37.368 181.584-37.224C181.440-37.176 181.344-37.128 181.296-37.080C181.248-37.032 181.176-37.008 181.080-37.008C180.792-36.768 180.528-36.540 180.288-36.324C180.048-36.108 179.880-35.880 179.784-35.640C179.544-35.304 179.424-34.968 179.424-34.632C179.472-34.344 179.496-34.044 179.496-33.732C179.496-33.420 179.544-33.096 179.640-32.760C179.736-32.424 179.916-32.100 180.180-31.788C180.444-31.476 180.768-31.272 181.152-31.176C181.488-30.936 181.788-30.804 182.052-30.780C182.316-30.756 182.640-30.768 183.024-30.816Z"></path>
            <path d="M188.712 2.664C188.712 2.856 188.856 2.952 189.144 2.952C189.528 2.568 189.804 2.148 189.972 1.692C190.140 1.236 190.272 0.768 190.368 0.288C190.560 0.096 190.608-0.120 190.512-0.360L191.268-2.628C191.436-3.132 191.580-3.576 191.700-3.960C191.820-4.344 191.952-4.788 192.096-5.292C192.240-5.796 192.504-6.552 192.888-7.560C193.224-8.520 193.452-9.204 193.572-9.612C193.692-10.020 193.800-10.392 193.896-10.728C193.992-11.064 194.112-11.448 194.256-11.880C194.400-12.312 194.664-13.008 195.048-13.968C195.240-14.448 195.516-15.144 195.876-16.056C196.236-16.968 196.608-17.928 196.992-18.936C197.376-19.944 197.736-20.904 198.072-21.816C198.408-22.728 198.672-23.424 198.864-23.904C198.912-24.096 199.020-24.408 199.188-24.840C199.356-25.272 199.536-25.728 199.728-26.208C199.920-26.688 200.124-27.108 200.340-27.468C200.556-27.828 200.712-28.032 200.808-28.080C201.480-28.320 202.008-28.464 202.392-28.512C202.776-28.560 203.304-28.632 203.976-28.728C204.168-28.728 204.264-28.740 204.264-28.764C204.264-28.788 204.252-28.812 204.228-28.836C204.204-28.860 204.192-28.884 204.192-28.908C204.192-28.932 204.264-28.968 204.408-29.016C204.792-29.064 205.176-29.076 205.560-29.052C205.944-29.028 206.328-29.064 206.712-29.160L207.288-29.160L207.360-29.160L207.468-29.232C207.540-29.280 207.768-29.352 208.152-29.448C208.200-29.544 208.488-29.604 209.016-29.628C209.544-29.652 209.856-29.712 209.952-29.808C210.480-29.904 210.864-30.240 211.104-30.816C211.104-31.104 211.176-31.368 211.320-31.608C211.464-31.848 211.536-32.088 211.536-32.328C211.488-32.568 211.464-32.772 211.464-32.940C211.464-33.108 211.392-33.312 211.248-33.552C211.248-33.648 211.176-33.756 211.032-33.876C210.888-33.996 210.816-34.104 210.816-34.200C210.720-34.440 210.576-34.632 210.384-34.776C210.192-34.920 210.000-35.040 209.808-35.136C209.520-35.232 209.220-35.268 208.908-35.244C208.596-35.220 208.272-35.208 207.936-35.208L207.468-35.208C207.396-35.208 207.336-35.196 207.288-35.172L207.072-35.064C206.976-35.016 206.784-34.992 206.496-34.992C206.208-34.944 206.040-34.908 205.992-34.884L205.920-34.848L205.848-34.812C205.800-34.788 205.608-34.776 205.272-34.776C205.032-34.776 204.924-34.752 204.948-34.704C204.972-34.656 204.792-34.680 204.408-34.776C204.456-34.824 204.480-34.968 204.480-35.208C204.576-35.400 204.636-35.508 204.660-35.532C204.684-35.556 204.696-35.556 204.696-35.532L204.696-35.496L204.912-35.856C205.200-36.432 205.380-36.828 205.452-37.044C205.524-37.260 205.596-37.428 205.668-37.548C205.740-37.668 205.824-37.788 205.920-37.908C206.016-38.028 206.208-38.304 206.496-38.736C207.168-39.696 207.720-40.476 208.152-41.076C208.584-41.676 209.232-42.408 210.096-43.272C210.528-43.704 210.900-44.088 211.212-44.424C211.524-44.760 211.968-45.120 212.544-45.504C213.120-45.888 213.492-46.032 213.660-45.936C213.828-45.840 213.864-45.600 213.768-45.216C213.672-44.832 213.492-44.364 213.228-43.812C212.964-43.260 212.700-42.696 212.436-42.120C212.172-41.544 211.932-41.028 211.716-40.572C211.500-40.116 211.392-39.792 211.392-39.600C211.392-39.408 211.488-39.156 211.680-38.844C211.872-38.532 211.992-38.280 212.040-38.088C212.232-37.992 212.388-37.932 212.508-37.908C212.628-37.884 212.760-37.752 212.904-37.512C213.240-37.320 213.444-37.176 213.516-37.080C213.588-36.984 213.888-36.936 214.416-36.936C214.464-36.936 214.512-36.912 214.560-36.864C214.608-36.816 214.656-36.792 214.704-36.792C214.800-36.840 214.884-36.888 214.956-36.936C215.028-36.984 215.136-37.032 215.280-37.080C215.520-37.176 215.760-37.260 216-37.332C216.240-37.404 216.408-37.512 216.504-37.656C216.792-37.944 217.116-38.292 217.476-38.700C217.836-39.108 218.196-39.636 218.556-40.284C218.916-40.932 219.276-41.724 219.636-42.660C219.996-43.596 220.296-44.760 220.536-46.152C220.584-46.152 220.608-46.308 220.608-46.620C220.608-46.932 220.596-47.280 220.572-47.664C220.548-48.048 220.500-48.408 220.428-48.744C220.356-49.080 220.248-49.296 220.104-49.392C219.864-49.488 219.708-49.692 219.636-50.004C219.564-50.316 219.456-50.544 219.312-50.688C218.832-51.072 218.340-51.372 217.836-51.588C217.332-51.804 216.744-51.936 216.072-51.984L215.136-51.984C214.176-51.984 213.324-51.912 212.580-51.768C211.836-51.624 211.152-51.432 210.528-51.192C209.904-50.952 209.304-50.628 208.728-50.220C208.152-49.812 207.528-49.368 206.856-48.888C206.424-48.552 205.848-48.000 205.128-47.232C204.408-46.464 203.676-45.660 202.932-44.820C202.188-43.980 201.540-43.200 200.988-42.480C200.436-41.760 200.136-41.256 200.088-40.968C199.800-40.488 199.500-40.020 199.188-39.564C198.876-39.108 198.600-38.640 198.360-38.160C198.216-37.872 198.132-37.692 198.108-37.620L198.072-37.512L198.036-37.440L197.784-36.936C197.592-36.504 197.472-36.240 197.424-36.144C197.376-36.048 197.316-35.988 197.244-35.964C197.172-35.940 197.088-35.868 196.992-35.748C196.896-35.628 196.728-35.280 196.488-34.704C196.488-34.608 196.464-34.524 196.416-34.452C196.368-34.380 196.320-34.296 196.272-34.200L194.184-33.768C194.040-33.768 193.896-33.708 193.752-33.588C193.608-33.468 193.440-33.432 193.248-33.480C192.960-33.576 192.660-33.600 192.348-33.552C192.036-33.504 191.736-33.480 191.448-33.480C191.304-33.576 191.124-33.564 190.908-33.444C190.692-33.324 190.392-33.240 190.008-33.192C189.864-33.192 189.720-33.204 189.576-33.228C189.432-33.252 189.312-33.192 189.216-33.048C189.120-32.904 188.952-32.844 188.712-32.868C188.472-32.892 188.280-32.832 188.136-32.688C188.040-32.448 187.860-32.340 187.596-32.364C187.332-32.388 187.200-32.184 187.200-31.752C187.200-31.512 187.044-31.332 186.732-31.212C186.420-31.092 186.288-30.912 186.336-30.672C186.288-30.432 186.372-30.144 186.588-29.808C186.804-29.472 186.936-29.232 186.984-29.088C187.080-28.512 187.236-28.104 187.452-27.864C187.668-27.624 187.968-27.432 188.352-27.288C188.736-27.192 189.096-27.120 189.432-27.072C189.768-27.024 190.128-27.048 190.512-27.144C190.896-27.240 191.196-27.300 191.412-27.324C191.628-27.348 191.820-27.360 191.988-27.360C192.156-27.360 192.336-27.372 192.528-27.396C192.720-27.420 193.032-27.480 193.464-27.576C193.560-27.576 193.536-27.408 193.392-27.072C193.248-26.736 193.068-26.352 192.852-25.920C192.636-25.488 192.444-25.092 192.276-24.732C192.108-24.372 192.072-24.192 192.168-24.192C192.072-23.904 192.024-23.736 192.024-23.688C191.976-23.448 191.820-22.980 191.556-22.284C191.292-21.588 190.992-20.856 190.656-20.088C190.320-19.320 190.008-18.588 189.720-17.892C189.432-17.196 189.264-16.752 189.216-16.560C188.688-14.976 188.256-13.740 187.920-12.852C187.584-11.964 187.260-11.124 186.948-10.332C186.636-9.540 186.324-8.688 186.012-7.776C185.700-6.864 185.304-5.616 184.824-4.032C184.728-3.744 184.656-3.564 184.608-3.492L184.536-3.384L184.536-3.312C184.536-3.264 184.512-3.096 184.464-2.808C184.416-2.568 184.356-2.316 184.284-2.052C184.212-1.788 184.272-1.512 184.464-1.224C184.512-1.176 184.524-1.092 184.500-0.972C184.476-0.852 184.464-0.744 184.464-0.648C184.416-0.504 184.392-0.372 184.392-0.252C184.392-0.132 184.344 0.024 184.248 0.216C184.152 0.504 184.152 0.780 184.248 1.044C184.344 1.308 184.440 1.560 184.536 1.800L184.896 1.656C184.992 1.752 185.040 1.896 185.040 2.088L185.040 2.592C185.232 2.640 185.316 2.664 185.292 2.664C185.268 2.664 185.304 2.712 185.400 2.808C185.544 2.952 185.640 3.072 185.688 3.168C185.736 3.264 185.880 3.288 186.120 3.240C186.168 3.240 186.192 3.228 186.192 3.204C186.192 3.180 186.216 3.168 186.264 3.168C186.360 3.120 186.456 2.976 186.552 2.736L186.912 3.024C187.056 2.784 187.224 2.544 187.416 2.304C187.608 2.064 187.872 1.896 188.208 1.800C188.208 1.992 188.256 2.232 188.352 2.520C188.496 2.424 188.544 2.280 188.496 2.088C188.448 1.896 188.496 1.776 188.640 1.728C188.880 2.160 188.904 2.472 188.712 2.664Z"></path>
            <path d="M229.104-33.120L228.240-31.392L228.240-31.464C228.000-31.848 227.796-32.220 227.628-32.580C227.460-32.940 227.220-33.240 226.908-33.480C226.596-33.720 226.164-33.900 225.612-34.020C225.060-34.140 224.304-34.176 223.344-34.128C223.152-34.128 222.984-34.092 222.840-34.020C222.696-33.948 222.552-33.888 222.408-33.840C221.208-33.552 220.092-33.096 219.060-32.472C218.028-31.848 217.056-31.116 216.144-30.276C215.232-29.436 214.356-28.524 213.516-27.540C212.676-26.556 211.872-25.584 211.104-24.624C211.008-24.480 210.864-24.276 210.672-24.012C210.480-23.748 210.276-23.472 210.060-23.184C209.844-22.896 209.640-22.620 209.448-22.356C209.256-22.092 209.136-21.888 209.088-21.744C208.512-20.784 207.840-19.764 207.072-18.684C206.304-17.604 205.680-16.488 205.200-15.336C205.056-14.904 204.876-14.460 204.660-14.004C204.444-13.548 204.264-13.056 204.120-12.528C204.120-12.288 204.024-12.048 203.832-11.808C203.640-11.568 203.520-11.328 203.472-11.088C203.088-10.464 202.884-9.780 202.860-9.036C202.836-8.292 202.728-7.536 202.536-6.768C202.440-6.480 202.392-6.216 202.392-5.976C202.392-5.736 202.344-5.520 202.248-5.328C202.200-4.512 202.260-3.840 202.428-3.312C202.596-2.784 202.800-2.160 203.040-1.440C203.040-1.392 203.052-1.368 203.076-1.368C203.100-1.368 203.112-1.344 203.112-1.296C203.784-0.048 204.720 0.792 205.920 1.224C207.120 1.656 208.656 1.536 210.528 0.864C211.056 0.624 211.656 0.324 212.328-0.036C213.000-0.396 213.600-0.840 214.128-1.368C214.224-1.512 214.368-1.656 214.560-1.800C214.752-1.944 214.920-2.112 215.064-2.304L217.152-4.392C217.872-5.112 218.568-5.904 219.240-6.768C219.336-6.816 219.492-6.936 219.708-7.128C219.924-7.320 220.080-7.512 220.176-7.704C220.080-7.224 220.032-6.852 220.032-6.588L220.032-5.688C220.080-4.920 220.128-4.296 220.176-3.816C220.224-3.336 220.368-2.784 220.608-2.160C220.896-1.488 221.280-0.936 221.760-0.504C222.624 0.168 223.596 0.540 224.676 0.612C225.756 0.684 226.860 0.528 227.988 0.144C229.116-0.240 230.196-0.804 231.228-1.548C232.260-2.292 233.136-3.096 233.856-3.960C233.952-4.056 234.024-4.116 234.072-4.140C234.120-4.164 234.168-4.224 234.216-4.320C234.888-4.944 235.500-5.640 236.052-6.408C236.604-7.176 237.144-7.968 237.672-8.784C238.008-9.216 238.512-9.936 239.184-10.944C239.856-11.952 240.552-13.032 241.272-14.184C241.992-15.336 242.664-16.428 243.288-17.460C243.912-18.492 244.320-19.248 244.512-19.728C244.608-20.112 244.704-20.472 244.800-20.808L245.088-21.816L245.088-22.032C245.088-22.128 245.112-22.200 245.160-22.248C245.016-22.200 244.920-22.140 244.872-22.068C244.824-21.996 244.776-21.936 244.728-21.888L244.872-23.184L244.728-22.896C244.536-23.136 244.428-23.364 244.404-23.580C244.380-23.796 244.320-24.024 244.224-24.264L244.224-24.336L244.080-24.192L244.080-24.336C243.888-24.096 243.804-24.024 243.828-24.120C243.852-24.216 243.792-24.192 243.648-24.048C243.552-24.144 243.492-24.216 243.468-24.264C243.444-24.312 243.408-24.360 243.360-24.408C243.312-24.456 243.276-24.408 243.252-24.264C243.228-24.120 243.168-24.072 243.072-24.120C243.072-24.216 243.084-24.288 243.108-24.336C243.132-24.384 243.168-24.480 243.216-24.624C243.168-24.576 243.120-24.576 243.072-24.624C243.024-24.672 242.976-24.648 242.928-24.552C242.736-24.456 242.664-24.348 242.712-24.228C242.760-24.108 242.688-24.000 242.496-23.904C242.496-23.760 242.448-23.712 242.352-23.760C242.256-23.808 242.160-23.832 242.064-23.832C241.824-23.784 241.524-23.640 241.164-23.400C240.804-23.160 240.576-22.968 240.480-22.824C240.384-22.632 240.276-22.452 240.156-22.284C240.036-22.116 239.904-21.960 239.760-21.816C239.664-21.816 239.628-21.756 239.652-21.636C239.676-21.516 239.664-21.408 239.616-21.312C239.424-21.168 239.208-20.964 238.968-20.700C238.728-20.436 238.560-20.184 238.464-19.944C238.224-19.560 237.816-18.876 237.240-17.892C236.664-16.908 236.016-15.840 235.296-14.688C234.576-13.536 233.844-12.420 233.100-11.340C232.356-10.260 231.744-9.456 231.264-8.928C230.736-8.256 230.148-7.644 229.500-7.092C228.852-6.540 228.264-6.168 227.736-5.976C227.496-5.880 227.256-5.796 227.016-5.724C226.776-5.652 226.512-5.640 226.224-5.688C225.696-5.880 225.432-6.312 225.432-6.984C225.384-8.328 225.456-9.420 225.648-10.260C225.840-11.100 226.056-11.976 226.296-12.888C226.824-14.472 227.316-15.768 227.772-16.776C228.228-17.784 228.720-18.960 229.248-20.304C229.632-21.216 230.064-22.164 230.544-23.148C231.024-24.132 231.528-25.104 232.056-26.064C232.200-26.352 232.392-26.712 232.632-27.144C232.872-27.576 233.100-28.020 233.316-28.476C233.532-28.932 233.724-29.400 233.892-29.880C234.060-30.360 234.144-30.768 234.144-31.104C234.384-31.440 234.504-31.728 234.504-31.968C234.648-32.352 234.636-32.664 234.468-32.904C234.300-33.144 234.144-33.456 234.000-33.840C233.952-33.936 233.880-33.960 233.784-33.912C233.688-33.864 233.616-33.936 233.568-34.128C233.424-34.128 233.304-34.080 233.208-33.984C233.112-33.888 233.040-33.936 232.992-34.128C232.896-34.416 232.776-34.560 232.632-34.560C232.344-34.608 232.152-34.644 232.056-34.668C231.960-34.692 231.720-34.656 231.336-34.560C230.952-34.416 230.544-34.272 230.112-34.128C229.680-33.984 229.344-33.648 229.104-33.120ZM224.352-28.080C224.640-28.176 224.856-27.996 225.000-27.540C225.144-27.084 225.264-26.616 225.360-26.136L225.000-25.128C225.096-24.936 225.024-24.732 224.784-24.516C224.544-24.300 224.376-24.048 224.280-23.760C224.232-23.520 224.124-23.328 223.956-23.184C223.788-23.040 223.704-22.824 223.704-22.536C223.608-22.392 223.560-22.308 223.560-22.284C223.560-22.260 223.536-22.152 223.488-21.960C222.912-20.568 222.120-19.224 221.112-17.928C220.440-16.824 219.828-15.852 219.276-15.012C218.724-14.172 218.112-13.344 217.440-12.528C217.008-11.904 216.588-11.400 216.180-11.016C215.772-10.632 215.328-10.152 214.848-9.576C213.216-7.704 211.992-6.708 211.176-6.588C210.360-6.468 209.880-6.816 209.736-7.632C209.592-8.448 209.712-9.516 210.096-10.836C210.480-12.156 211.080-13.368 211.896-14.472C212.088-14.760 212.244-15.000 212.364-15.192C212.484-15.384 212.592-15.564 212.688-15.732C212.784-15.900 212.880-16.080 212.976-16.272C213.072-16.464 213.240-16.728 213.480-17.064C214.296-18.264 215.184-19.524 216.144-20.844C217.104-22.164 218.016-23.256 218.880-24.120C219.312-24.696 219.648-25.092 219.888-25.308C220.128-25.524 220.488-25.800 220.968-26.136C221.112-26.328 221.160-26.424 221.112-26.424C221.064-26.424 221.208-26.448 221.544-26.496C221.640-26.544 221.760-26.664 221.904-26.856C222.048-27.048 222.168-27.144 222.264-27.144L222.768-27.396C222.912-27.468 223.056-27.552 223.200-27.648C223.392-27.696 223.560-27.792 223.704-27.936C223.896-28.032 223.968-28.044 223.920-27.972C223.872-27.900 223.944-27.912 224.136-28.008L224.208-28.008C224.256-28.008 224.304-28.032 224.352-28.080ZM244.224-24.336L244.224-24.264C244.224-24.312 244.236-24.360 244.260-24.408C244.284-24.456 244.272-24.432 244.224-24.336Z"></path>
            <path d="M250.848-23.112C252.336-24.600 253.452-25.572 254.196-26.028C254.940-26.484 255.396-26.640 255.564-26.496C255.732-26.352 255.684-25.980 255.420-25.380C255.156-24.780 254.808-24.144 254.376-23.472C253.320-21.936 252.420-20.400 251.676-18.864C250.932-17.328 250.224-15.552 249.552-13.536C249.168-12.432 248.820-11.388 248.508-10.404C248.196-9.420 247.968-8.400 247.824-7.344C247.728-6.816 247.680-6.276 247.680-5.724C247.680-5.172 247.728-4.632 247.824-4.104C247.920-3.432 248.064-2.808 248.256-2.232C248.448-1.656 248.832-1.176 249.408-0.792L250.200-0.144C250.632 0.240 251.112 0.480 251.640 0.576C252.168 0.672 252.720 0.720 253.296 0.720C253.584 0.720 253.920 0.696 254.304 0.648C254.688 0.600 255.096 0.552 255.528 0.504C255.960 0.456 256.356 0.372 256.716 0.252C257.076 0.132 257.376 0 257.616-0.144C258.144-0.528 258.636-0.864 259.092-1.152C259.548-1.440 260.016-1.776 260.496-2.160C260.592-2.256 260.688-2.364 260.784-2.484C260.880-2.604 261-2.688 261.144-2.736L261.648-2.988C261.792-3.060 261.888-3.240 261.936-3.528C261.984-3.624 262.128-3.720 262.368-3.816C263.232-4.632 264.048-5.472 264.816-6.336C265.584-7.200 266.328-8.112 267.048-9.072C267.528-9.696 268.044-10.344 268.596-11.016C269.148-11.688 269.664-12.408 270.144-13.176C270.240-13.320 270.324-13.440 270.396-13.536C270.468-13.632 270.552-13.776 270.648-13.968C270.792-14.256 271.032-14.640 271.368-15.120C271.704-15.600 272.052-16.104 272.412-16.632C272.772-17.160 273.120-17.676 273.456-18.180C273.792-18.684 274.032-19.104 274.176-19.440C274.224-19.536 274.272-19.656 274.320-19.800C274.368-19.944 274.344-20.064 274.248-20.160C274.200-20.352 274.140-20.508 274.068-20.628C273.996-20.748 273.984-20.904 274.032-21.096C274.176-21.240 274.356-21.360 274.572-21.456C274.788-21.552 274.848-21.720 274.752-21.960C274.656-22.200 274.584-22.320 274.536-22.320L274.536-22.680C274.296-22.776 274.152-22.848 274.104-22.896C274.056-22.944 273.984-23.088 273.888-23.328C273.600-23.232 273.420-23.184 273.348-23.184C273.276-23.184 273.120-23.208 272.880-23.256C272.784-23.352 272.784-23.460 272.880-23.580C272.976-23.700 272.952-23.808 272.808-23.904C272.616-23.808 272.472-23.700 272.376-23.580C272.280-23.460 272.184-23.352 272.088-23.256C271.992-23.160 271.932-23.064 271.908-22.968C271.884-22.872 271.800-22.848 271.656-22.896C271.560-22.992 271.488-23.016 271.440-22.968C271.392-22.920 271.320-22.872 271.224-22.824C271.272-23.064 271.356-23.256 271.476-23.400C271.596-23.544 271.656-23.736 271.656-23.976C271.080-23.736 270.708-23.544 270.540-23.400C270.372-23.256 270.120-22.944 269.784-22.464C269.496-21.984 269.136-21.432 268.704-20.808C268.272-20.184 267.840-19.548 267.408-18.900C266.976-18.252 266.544-17.628 266.112-17.028C265.680-16.428 265.320-15.912 265.032-15.480L261.432-11.088C261.192-10.800 260.844-10.392 260.388-9.864C259.932-9.336 259.440-8.784 258.912-8.208C258.384-7.632 257.856-7.104 257.328-6.624C256.800-6.144 256.392-5.832 256.104-5.688C255.528-5.352 255.108-5.208 254.844-5.256C254.580-5.304 254.400-5.448 254.304-5.688C254.208-5.928 254.184-6.228 254.232-6.588C254.280-6.948 254.352-7.272 254.448-7.560C255.072-9.960 255.768-11.988 256.536-13.644C257.304-15.300 258.120-16.968 258.984-18.648C259.272-19.320 259.584-19.956 259.920-20.556C260.256-21.156 260.664-21.864 261.144-22.680C261.576-23.448 262.032-24.348 262.512-25.380C262.992-26.412 263.280-27.552 263.376-28.800L263.376-29.736C263.280-30.504 263.028-31.164 262.620-31.716C262.212-32.268 261.768-32.784 261.288-33.264C261.048-33.552 260.628-33.744 260.028-33.840C259.428-33.936 258.936-34.032 258.552-34.128C258.072-34.224 257.712-34.248 257.472-34.200C257.232-34.152 256.920-34.080 256.536-33.984C256.104-33.888 255.780-33.780 255.564-33.660C255.348-33.540 254.760-33.192 253.800-32.616C253.464-32.424 253.032-32.112 252.504-31.680C251.976-31.248 251.424-30.756 250.848-30.204C250.272-29.652 249.696-29.064 249.120-28.440C248.544-27.816 248.040-27.216 247.608-26.640C247.560-26.592 247.476-26.484 247.356-26.316C247.236-26.148 247.104-25.968 246.960-25.776C246.816-25.584 246.684-25.416 246.564-25.272C246.444-25.128 246.360-25.056 246.312-25.056C246.312-25.104 246.336-25.176 246.384-25.272C246.384-25.320 246.432-25.488 246.528-25.776C246.576-25.968 246.648-26.208 246.744-26.496C246.744-26.544 246.828-26.820 246.996-27.324C247.164-27.828 247.356-28.380 247.572-28.980C247.788-29.580 247.980-30.132 248.148-30.636C248.316-31.140 248.400-31.416 248.400-31.464C248.256-33.288 247.368-34.320 245.736-34.560C245.448-34.608 245.124-34.644 244.764-34.668C244.404-34.692 244.104-34.656 243.864-34.560C242.760-34.080 242.040-33.336 241.704-32.328C241.608-31.800 241.476-31.368 241.308-31.032C241.140-30.696 240.936-30.216 240.696-29.592C240.552-28.968 240.372-28.332 240.156-27.684C239.940-27.036 239.712-26.424 239.472-25.848C238.992-24.552 238.608-23.448 238.320-22.536C238.032-21.624 237.768-20.748 237.528-19.908C237.288-19.068 237.024-18.180 236.736-17.244C236.448-16.308 236.064-15.168 235.584-13.824L233.424-7.560C233.232-7.032 233.052-6.516 232.884-6.012C232.716-5.508 232.584-4.992 232.488-4.464C232.440-4.224 232.368-4.032 232.272-3.888C232.176-3.744 232.152-3.624 232.200-3.528C232.248-3.144 232.248-2.808 232.200-2.520C232.152-2.424 232.176-2.220 232.272-1.908C232.368-1.596 232.464-1.368 232.560-1.224C232.800-0.984 232.896-0.816 232.848-0.720C232.800-0.624 232.848-0.456 232.992-0.216C233.520 0.456 234.168 0.792 234.936 0.792C235.704 0.792 236.496 0.648 237.312 0.360C237.648 0.264 237.804 0.096 237.780-0.144C237.756-0.384 237.912-0.624 238.248-0.864C238.440-1.056 238.584-1.152 238.680-1.152C238.776-1.152 238.872-1.344 238.968-1.728C238.968-2.160 239.028-2.412 239.148-2.484C239.268-2.556 239.376-2.784 239.472-3.168C239.568-3.696 239.700-4.236 239.868-4.788C240.036-5.340 240.264-5.832 240.552-6.264C240.648-6.600 240.720-6.876 240.768-7.092C240.816-7.308 240.864-7.488 240.912-7.632C240.960-7.776 241.032-7.944 241.128-8.136C241.224-8.328 241.368-8.568 241.560-8.856C241.704-9.192 241.776-9.372 241.776-9.396C241.776-9.420 241.764-9.408 241.740-9.360C241.716-9.312 241.716-9.312 241.740-9.360C241.764-9.408 241.848-9.600 241.992-9.936C242.232-10.368 242.412-10.824 242.532-11.304C242.652-11.784 242.880-12.264 243.216-12.744C243.648-13.656 244.128-14.556 244.656-15.444C245.184-16.332 245.832-17.256 246.600-18.216L247.464-19.296C247.848-19.776 248.256-20.268 248.688-20.772C249.120-21.276 249.540-21.744 249.948-22.176C250.356-22.608 250.656-22.920 250.848-23.112Z"></path>
        </g>
        <animate attributeName="fill" values="#142333; #00000000; #142333;" dur="3s" repeatCount="indefinite" />
    </g>
</svg>
